refGRF
version=1
nRows=12
nColumns=19
inDegrees=no
endheader
time	ground_force_r_vx	ground_force_r_vy	ground_force_r_vz	ground_force_r_px	ground_force_r_py	ground_force_r_pz	ground_torque_r_x	ground_torque_r_y	ground_torque_r_z	ground_force_l_vx	ground_force_l_vy	ground_force_l_vz	ground_force_l_px	ground_force_l_py	ground_force_l_pz	ground_torque_l_x	ground_torque_l_y	ground_torque_l_z
      0.37700000	    -94.60919762	   1542.81284555	    -88.37132722	     -2.17378202	      0.00000000	      0.23517999	     -0.07986414	     -1.97040716	      0.06168811	      0.00000000	      0.00000000	      0.00000000	      0.00000000	      0.00000000	      0.00000000	      0.00000000	      0.00000000	      0.00000000
      0.37800000	   -111.88792399	   1584.66229424	    -89.39982341	     -2.17290213	      0.00000000	      0.23460406	     -0.11836496	     -1.12499995	      0.01806324	      0.00000000	      0.00000000	      0.00000000	      0.00000000	      0.00000000	      0.00000000	      0.00000000	      0.00000000	      0.00000000
      0.37900000	   -131.25160909	   1625.46525150	    -90.36731159	     -2.17196966	      0.00000000	      0.23404131	     -0.16450296	     -0.17139716	     -0.02469950	      0.00000000	      0.00000000	      0.00000000	      0.00000000	      0.00000000	      0.00000000	      0.00000000	      0.00000000	      0.00000000
      0.38000000	   -151.39202712	   1664.69890286	    -90.84480250	     -2.17100749	      0.00000000	      0.23347940	     -0.22365060	      0.87967794	     -0.06690084	      0.00000000	      0.00000000	      0.00000000	      0.00000000	      0.00000000	      0.00000000	      0.00000000	      0.00000000	      0.00000000
      0.38100000	   -171.09490075	   1701.88547058	    -90.44697590	     -2.17003597	      0.00000000	      0.23290934	     -0.29919441	      2.01364052	     -0.10803140	      0.00000000	      0.00000000	      0.00000000	      0.00000000	      0.00000000	      0.00000000	      0.00000000	      0.00000000	      0.00000000
      0.38200000	   -189.29300446	   1736.60175758	    -88.85054716	     -2.16907188	      0.00000000	      0.23232523	     -0.39235827	      3.21346362	     -0.14681940	      0.00000000	      0.00000000	      0.00000000	      0.00000000	      0.00000000	      0.00000000	      0.00000000	      0.00000000	      0.00000000
      0.38300000	   -205.10579253	   1768.50749061	    -85.81124886	     -2.16812809	      0.00000000	      0.23172341	     -0.50228004	      4.46148972	     -0.18138424	      0.00000000	      0.00000000	      0.00000000	      0.00000000	      0.00000000	      0.00000000	      0.00000000	      0.00000000	      0.00000000
      0.38400000	   -217.86956462	   1797.37869851	    -81.17656294	     -2.16721382	      0.00000000	      0.23110286	     -0.62627400	      5.74085114	     -0.20944484	      0.00000000	      0.00000000	      0.00000000	      0.00000000	      0.00000000	      0.00000000	      0.00000000	      0.00000000	      0.00000000
      0.38500000	   -227.15842730	   1823.12101750	    -74.89137296	     -2.16633573	      0.00000000	      0.23046559	     -0.76023319	      7.03602859	     -0.22855537	      0.00000000	      0.00000000	      0.00000000	      0.00000000	      0.00000000	      0.00000000	      0.00000000	      0.00000000	      0.00000000
      0.38600000	   -232.79016545	   1845.77759568	    -66.99797750	     -2.16549981	      0.00000000	      0.22981657	     -0.89913863	      8.33321811	     -0.23635956	      0.00000000	      0.00000000	      0.00000000	      0.00000000	      0.00000000	      0.00000000	      0.00000000	      0.00000000	      0.00000000
      0.38700000	   -234.81185057	   1865.52155646	    -57.62988185	     -2.16471163	      0.00000000	      0.22916283	     -1.03767914	      9.62154734	     -0.23082856	      0.00000000	      0.00000000	      0.00000000	      0.00000000	      0.00000000	      0.00000000	      0.00000000	      0.00000000	      0.00000000
      0.38800000	   -233.47082319	   1882.63147704	    -47.00430381	     -2.16397447	      0.00000000	      0.22851280	     -1.17076015	     10.89312155	     -0.21051313	      0.00000000	      0.00000000	      0.00000000	      0.00000000	      0.00000000	      0.00000000	      0.00000000	      0.00000000	      0.00000000
